<mxfile host="Electron" modified="2024-04-05T10:45:24.173Z" agent="Mozilla/5.0 (Windows NT 10.0; Win64; x64) AppleWebKit/537.36 (KHTML, like Gecko) draw.io/23.1.5 Chrome/120.0.6099.109 Electron/28.1.0 Safari/537.36" etag="GI4XPGtiD2umFafPAkfe" version="23.1.5" type="device">
  <diagram name="Pagina-1" id="iIpGOs-iPlgkvmDMRsA2">
    <mxGraphModel dx="840" dy="503" grid="1" gridSize="10" guides="1" tooltips="1" connect="1" arrows="1" fold="1" page="1" pageScale="1" pageWidth="827" pageHeight="1169" math="0" shadow="0">
      <root>
        <mxCell id="0" />
        <mxCell id="1" parent="0" />
        <mxCell id="-EY84cXL7HPhBuZHMSI7-21" style="edgeStyle=orthogonalEdgeStyle;rounded=0;orthogonalLoop=1;jettySize=auto;html=1;entryX=0;entryY=0.5;entryDx=0;entryDy=0;" edge="1" parent="1" source="-EY84cXL7HPhBuZHMSI7-1" target="-EY84cXL7HPhBuZHMSI7-13">
          <mxGeometry relative="1" as="geometry" />
        </mxCell>
        <mxCell id="-EY84cXL7HPhBuZHMSI7-22" style="edgeStyle=orthogonalEdgeStyle;rounded=0;orthogonalLoop=1;jettySize=auto;html=1;entryX=0;entryY=0.5;entryDx=0;entryDy=0;" edge="1" parent="1" source="-EY84cXL7HPhBuZHMSI7-1" target="-EY84cXL7HPhBuZHMSI7-11">
          <mxGeometry relative="1" as="geometry" />
        </mxCell>
        <mxCell id="-EY84cXL7HPhBuZHMSI7-23" style="edgeStyle=orthogonalEdgeStyle;rounded=0;orthogonalLoop=1;jettySize=auto;html=1;entryX=0;entryY=0.5;entryDx=0;entryDy=0;" edge="1" parent="1" source="-EY84cXL7HPhBuZHMSI7-1" target="-EY84cXL7HPhBuZHMSI7-9">
          <mxGeometry relative="1" as="geometry" />
        </mxCell>
        <mxCell id="-EY84cXL7HPhBuZHMSI7-24" style="edgeStyle=orthogonalEdgeStyle;rounded=0;orthogonalLoop=1;jettySize=auto;html=1;entryX=0;entryY=0.5;entryDx=0;entryDy=0;" edge="1" parent="1" source="-EY84cXL7HPhBuZHMSI7-1" target="-EY84cXL7HPhBuZHMSI7-7">
          <mxGeometry relative="1" as="geometry" />
        </mxCell>
        <mxCell id="-EY84cXL7HPhBuZHMSI7-25" style="edgeStyle=orthogonalEdgeStyle;rounded=0;orthogonalLoop=1;jettySize=auto;html=1;entryX=0;entryY=0.5;entryDx=0;entryDy=0;" edge="1" parent="1" source="-EY84cXL7HPhBuZHMSI7-1" target="-EY84cXL7HPhBuZHMSI7-4">
          <mxGeometry relative="1" as="geometry" />
        </mxCell>
        <mxCell id="-EY84cXL7HPhBuZHMSI7-26" style="edgeStyle=orthogonalEdgeStyle;rounded=0;orthogonalLoop=1;jettySize=auto;html=1;entryX=0;entryY=0.5;entryDx=0;entryDy=0;" edge="1" parent="1" source="-EY84cXL7HPhBuZHMSI7-1" target="-EY84cXL7HPhBuZHMSI7-3">
          <mxGeometry relative="1" as="geometry" />
        </mxCell>
        <mxCell id="-EY84cXL7HPhBuZHMSI7-32" style="edgeStyle=orthogonalEdgeStyle;rounded=0;orthogonalLoop=1;jettySize=auto;html=1;entryX=0;entryY=0.5;entryDx=0;entryDy=0;endArrow=doubleBlock;endFill=1;" edge="1" parent="1" source="-EY84cXL7HPhBuZHMSI7-1" target="-EY84cXL7HPhBuZHMSI7-30">
          <mxGeometry relative="1" as="geometry" />
        </mxCell>
        <mxCell id="-EY84cXL7HPhBuZHMSI7-1" value="Oggetto Celeste" style="rounded=0;whiteSpace=wrap;html=1;" vertex="1" parent="1">
          <mxGeometry x="80" y="240" width="160" height="80" as="geometry" />
        </mxCell>
        <mxCell id="-EY84cXL7HPhBuZHMSI7-27" style="edgeStyle=orthogonalEdgeStyle;rounded=0;orthogonalLoop=1;jettySize=auto;html=1;entryX=0;entryY=0.5;entryDx=0;entryDy=0;" edge="1" parent="1" source="-EY84cXL7HPhBuZHMSI7-2" target="-EY84cXL7HPhBuZHMSI7-19">
          <mxGeometry relative="1" as="geometry" />
        </mxCell>
        <mxCell id="-EY84cXL7HPhBuZHMSI7-28" style="edgeStyle=orthogonalEdgeStyle;rounded=0;orthogonalLoop=1;jettySize=auto;html=1;entryX=0;entryY=0.5;entryDx=0;entryDy=0;" edge="1" parent="1" source="-EY84cXL7HPhBuZHMSI7-2" target="-EY84cXL7HPhBuZHMSI7-16">
          <mxGeometry relative="1" as="geometry" />
        </mxCell>
        <mxCell id="-EY84cXL7HPhBuZHMSI7-29" style="edgeStyle=orthogonalEdgeStyle;rounded=0;orthogonalLoop=1;jettySize=auto;html=1;entryX=0;entryY=0.5;entryDx=0;entryDy=0;" edge="1" parent="1" source="-EY84cXL7HPhBuZHMSI7-2" target="-EY84cXL7HPhBuZHMSI7-15">
          <mxGeometry relative="1" as="geometry" />
        </mxCell>
        <mxCell id="-EY84cXL7HPhBuZHMSI7-33" style="edgeStyle=orthogonalEdgeStyle;rounded=0;orthogonalLoop=1;jettySize=auto;html=1;entryX=1;entryY=0.5;entryDx=0;entryDy=0;endArrow=doubleBlock;endFill=1;" edge="1" parent="1" source="-EY84cXL7HPhBuZHMSI7-2" target="-EY84cXL7HPhBuZHMSI7-30">
          <mxGeometry relative="1" as="geometry" />
        </mxCell>
        <mxCell id="-EY84cXL7HPhBuZHMSI7-2" value="Sistema" style="rounded=0;whiteSpace=wrap;html=1;" vertex="1" parent="1">
          <mxGeometry x="600" y="240" width="160" height="80" as="geometry" />
        </mxCell>
        <mxCell id="-EY84cXL7HPhBuZHMSI7-3" value="" style="ellipse;whiteSpace=wrap;html=1;aspect=fixed;" vertex="1" parent="1">
          <mxGeometry x="220" y="360" width="20" height="20" as="geometry" />
        </mxCell>
        <mxCell id="-EY84cXL7HPhBuZHMSI7-4" value="" style="ellipse;whiteSpace=wrap;html=1;aspect=fixed;fillColor=#030303;" vertex="1" parent="1">
          <mxGeometry x="220" y="390" width="20" height="20" as="geometry" />
        </mxCell>
        <mxCell id="-EY84cXL7HPhBuZHMSI7-5" value="Nome" style="text;html=1;align=center;verticalAlign=middle;resizable=0;points=[];autosize=1;strokeColor=none;fillColor=none;" vertex="1" parent="1">
          <mxGeometry x="240" y="355" width="60" height="30" as="geometry" />
        </mxCell>
        <mxCell id="-EY84cXL7HPhBuZHMSI7-6" value="CodUnivoco" style="text;html=1;align=center;verticalAlign=middle;resizable=0;points=[];autosize=1;strokeColor=none;fillColor=none;" vertex="1" parent="1">
          <mxGeometry x="240" y="385" width="90" height="30" as="geometry" />
        </mxCell>
        <mxCell id="-EY84cXL7HPhBuZHMSI7-7" value="" style="ellipse;whiteSpace=wrap;html=1;aspect=fixed;" vertex="1" parent="1">
          <mxGeometry x="220" y="420" width="20" height="20" as="geometry" />
        </mxCell>
        <mxCell id="-EY84cXL7HPhBuZHMSI7-8" value="Scopritore" style="text;html=1;align=center;verticalAlign=middle;resizable=0;points=[];autosize=1;strokeColor=none;fillColor=none;" vertex="1" parent="1">
          <mxGeometry x="240" y="415" width="80" height="30" as="geometry" />
        </mxCell>
        <mxCell id="-EY84cXL7HPhBuZHMSI7-9" value="" style="ellipse;whiteSpace=wrap;html=1;aspect=fixed;" vertex="1" parent="1">
          <mxGeometry x="220" y="450" width="20" height="20" as="geometry" />
        </mxCell>
        <mxCell id="-EY84cXL7HPhBuZHMSI7-10" value="Tipologia" style="text;html=1;align=center;verticalAlign=middle;resizable=0;points=[];autosize=1;strokeColor=none;fillColor=none;" vertex="1" parent="1">
          <mxGeometry x="240" y="445" width="70" height="30" as="geometry" />
        </mxCell>
        <mxCell id="-EY84cXL7HPhBuZHMSI7-11" value="" style="ellipse;whiteSpace=wrap;html=1;aspect=fixed;" vertex="1" parent="1">
          <mxGeometry x="220" y="480" width="20" height="20" as="geometry" />
        </mxCell>
        <mxCell id="-EY84cXL7HPhBuZHMSI7-12" value="DistanzaTerra" style="text;html=1;align=center;verticalAlign=middle;resizable=0;points=[];autosize=1;strokeColor=none;fillColor=none;" vertex="1" parent="1">
          <mxGeometry x="240" y="475" width="100" height="30" as="geometry" />
        </mxCell>
        <mxCell id="-EY84cXL7HPhBuZHMSI7-13" value="" style="ellipse;whiteSpace=wrap;html=1;aspect=fixed;" vertex="1" parent="1">
          <mxGeometry x="220" y="510" width="20" height="20" as="geometry" />
        </mxCell>
        <mxCell id="-EY84cXL7HPhBuZHMSI7-14" value="CooPolari" style="text;html=1;align=center;verticalAlign=middle;resizable=0;points=[];autosize=1;strokeColor=none;fillColor=none;" vertex="1" parent="1">
          <mxGeometry x="240" y="506" width="80" height="30" as="geometry" />
        </mxCell>
        <mxCell id="-EY84cXL7HPhBuZHMSI7-15" value="" style="ellipse;whiteSpace=wrap;html=1;aspect=fixed;" vertex="1" parent="1">
          <mxGeometry x="740" y="360" width="20" height="20" as="geometry" />
        </mxCell>
        <mxCell id="-EY84cXL7HPhBuZHMSI7-16" value="" style="ellipse;whiteSpace=wrap;html=1;aspect=fixed;fillColor=#000000;" vertex="1" parent="1">
          <mxGeometry x="740" y="390" width="20" height="20" as="geometry" />
        </mxCell>
        <mxCell id="-EY84cXL7HPhBuZHMSI7-17" value="Nome" style="text;html=1;align=center;verticalAlign=middle;resizable=0;points=[];autosize=1;strokeColor=none;fillColor=none;" vertex="1" parent="1">
          <mxGeometry x="760" y="355" width="60" height="30" as="geometry" />
        </mxCell>
        <mxCell id="-EY84cXL7HPhBuZHMSI7-18" value="Codice" style="text;html=1;align=center;verticalAlign=middle;resizable=0;points=[];autosize=1;strokeColor=none;fillColor=none;" vertex="1" parent="1">
          <mxGeometry x="760" y="385" width="60" height="30" as="geometry" />
        </mxCell>
        <mxCell id="-EY84cXL7HPhBuZHMSI7-19" value="" style="ellipse;whiteSpace=wrap;html=1;aspect=fixed;" vertex="1" parent="1">
          <mxGeometry x="740" y="420" width="20" height="20" as="geometry" />
        </mxCell>
        <mxCell id="-EY84cXL7HPhBuZHMSI7-20" value="Tipo" style="text;html=1;align=center;verticalAlign=middle;resizable=0;points=[];autosize=1;strokeColor=none;fillColor=none;" vertex="1" parent="1">
          <mxGeometry x="760" y="415" width="50" height="30" as="geometry" />
        </mxCell>
        <mxCell id="-EY84cXL7HPhBuZHMSI7-30" value="includere" style="rhombus;whiteSpace=wrap;html=1;" vertex="1" parent="1">
          <mxGeometry x="380" y="250" width="100" height="60" as="geometry" />
        </mxCell>
        <mxCell id="-EY84cXL7HPhBuZHMSI7-35" value="" style="endArrow=none;html=1;rounded=0;" edge="1" parent="1">
          <mxGeometry width="50" height="50" relative="1" as="geometry">
            <mxPoint x="589" y="310" as="sourcePoint" />
            <mxPoint x="589" y="250" as="targetPoint" />
          </mxGeometry>
        </mxCell>
        <mxCell id="-EY84cXL7HPhBuZHMSI7-37" value="" style="endArrow=none;html=1;rounded=0;" edge="1" parent="1">
          <mxGeometry width="50" height="50" relative="1" as="geometry">
            <mxPoint x="183" y="441" as="sourcePoint" />
            <mxPoint x="183" y="421" as="targetPoint" />
          </mxGeometry>
        </mxCell>
      </root>
    </mxGraphModel>
  </diagram>
</mxfile>
